<?xml version="1.0" encoding="UTF-8" standalone="no"?>
<!-- Created with Inkscape (http://www.inkscape.org/) -->

<svg
   xmlns:dc="http://purl.org/dc/elements/1.1/"
   xmlns:cc="http://creativecommons.org/ns#"
   xmlns:rdf="http://www.w3.org/1999/02/22-rdf-syntax-ns#"
   xmlns:svg="http://www.w3.org/2000/svg"
   xmlns="http://www.w3.org/2000/svg"
   xmlns:sodipodi="http://sodipodi.sourceforge.net/DTD/sodipodi-0.dtd"
   xmlns:inkscape="http://www.inkscape.org/namespaces/inkscape"
   viewBox="0 0 200 200"
   id="svg2"
   version="1.1"
   inkscape:version="0.48.5 r10040"
   sodipodi:docname="logo.svg">
  <defs
     id="defs4" />
  <sodipodi:namedview
     id="base"
     pagecolor="#ffffff"
     bordercolor="#666666"
     borderopacity="1.0"
     inkscape:pageopacity="0.0"
     inkscape:pageshadow="2"
     inkscape:zoom="1.4"
     inkscape:cx="182.31978"
     inkscape:cy="121.64667"
     inkscape:document-units="px"
     inkscape:current-layer="layer1"
     showgrid="false"
     inkscape:snap-global="true"
     inkscape:window-width="1182"
     inkscape:window-height="841"
     inkscape:window-x="191"
     inkscape:window-y="25"
     inkscape:window-maximized="0"
     fit-margin-top="0"
     fit-margin-left="0"
     fit-margin-right="0"
     fit-margin-bottom="0">
    <inkscape:grid
       type="xygrid"
       id="grid3789"
       empspacing="5"
       visible="true"
       enabled="true"
       snapvisiblegridlinesonly="true"
       originx="-280px"
       originy="-65px" />
  </sodipodi:namedview>
  <metadata
     id="metadata7">
    <rdf:RDF>
      <cc:Work
         rdf:about="">
        <dc:format>image/svg+xml</dc:format>
        <dc:type
           rdf:resource="http://purl.org/dc/dcmitype/StillImage" />
        <dc:title></dc:title>
      </cc:Work>
    </rdf:RDF>
  </metadata>
  <g
     inkscape:label="Layer 1"
     inkscape:groupmode="layer"
     id="layer1"
     transform="translate(-280,-787.36218)">
    <path
       style="fill:#000000;fill-opacity:1;fill-rule:evenodd;stroke:none"
       d="M 0 0 L 0 200 L 200 200 L 200 0 L 0 0 z M 74.71875 70.96875 L 160.8125 70.96875 L 160.8125 90.9375 L 129.46875 90.9375 L 129.46875 174.9375 L 106.0625 174.9375 L 106.0625 90.9375 L 74.71875 90.9375 L 74.71875 70.96875 z M 143.46875 137.40625 L 153.90625 137.40625 L 153.90625 156.625 C 153.90623 159.98602 154.36274 162.41304 155.25 163.90625 C 156.13723 165.39949 157.7934 166.15626 160.21875 166.15625 C 160.96641 166.15626 161.75419 166.13304 162.59375 166.0625 C 163.43326 165.992 164.19004 165.90508 164.84375 165.8125 L 164.84375 137.40625 L 175.25 137.40625 L 175.25 172.9375 C 173.47547 173.45162 171.2061 173.93209 168.40625 174.375 C 165.60634 174.81791 162.67275 175.0625 159.59375 175.0625 C 156.46629 175.0625 153.85765 174.62078 151.78125 173.78125 C 149.70483 172.94171 148.05712 171.76673 146.84375 170.25 C 145.63037 168.73329 144.7634 166.94367 144.25 164.84375 C 143.73659 162.74384 143.46875 160.42701 143.46875 157.90625 L 143.46875 137.40625 z "
       transform="translate(280,787.36218)"
       id="rect2998" />
  </g>
</svg>
